<?xml version="1.0" encoding="iso-8859-1"?>
<!-- Generator: Adobe Illustrator 18.1.1, SVG Export Plug-In . SVG Version: 6.00 Build 0)  -->
<svg version="1.1" id="Capa_1" xmlns="http://www.w3.org/2000/svg" xmlns:xlink="http://www.w3.org/1999/xlink" x="0px" y="0px"
	 viewBox="0 0 32 32" style="enable-background:new 0 0 32 32;" xml:space="preserve">
<g>
	<g id="camera">
		<path style="fill:#010002;" d="M16,9.501c-4.419,0-8,3.581-8,8c0,4.418,3.581,8,8,8c4.418,0,8-3.582,8-8S20.418,9.501,16,9.501z
			 M20.555,21.406c-2.156,2.516-5.943,2.807-8.459,0.65c-2.517-2.156-2.807-5.944-0.65-8.459c2.155-2.517,5.943-2.807,8.459-0.65
			C22.42,15.102,22.711,18.891,20.555,21.406z"/>
		<path style="fill:#010002;" d="M16,13.501c-2.209,0-3.999,1.791-4,3.999v0.002c0,0.275,0.224,0.5,0.5,0.5s0.5-0.225,0.5-0.5V17.5
			c0.001-1.656,1.343-2.999,3-2.999c0.276,0,0.5-0.224,0.5-0.5S16.276,13.501,16,13.501z"/>
		<path style="fill:#010002;" d="M29.492,8.542l-4.334-0.723l-1.373-3.434C23.326,3.24,22.232,2.5,21,2.5H11
			c-1.232,0-2.326,0.74-2.786,1.886L6.842,7.819L2.509,8.542C1.055,8.783,0,10.027,0,11.5v15c0,1.654,1.346,3,3,3h26
			c1.654,0,3-1.346,3-3v-15C32,10.027,30.945,8.783,29.492,8.542z M30,26.5c0,0.553-0.447,1-1,1H3c-0.553,0-1-0.447-1-1v-15
			c0-0.489,0.354-0.906,0.836-0.986L8.28,9.607l1.791-4.478C10.224,4.75,10.591,4.5,11,4.5h10c0.408,0,0.775,0.249,0.928,0.629
			l1.791,4.478l5.445,0.907C29.646,10.594,30,11.011,30,11.5V26.5z"/>
	</g>
</g>
<g>
</g>
<g>
</g>
<g>
</g>
<g>
</g>
<g>
</g>
<g>
</g>
<g>
</g>
<g>
</g>
<g>
</g>
<g>
</g>
<g>
</g>
<g>
</g>
<g>
</g>
<g>
</g>
<g>
</g>
</svg>
